<?xml version="1.0" encoding="utf-8"?>
<!-- Generator: Adobe Illustrator 26.0.1, SVG Export Plug-In . SVG Version: 6.00 Build 0)  -->
<svg version="1.1" id="Layer_1" xmlns="http://www.w3.org/2000/svg" xmlns:xlink="http://www.w3.org/1999/xlink" x="0px" y="0px"
	 viewBox="0 0 600 600" style="enable-background:new 0 0 600 600;" xml:space="preserve">
<style type="text/css">
	.st0{fill:#2D7036;}
	.st1{fill:#FFFFFF;}
	.st2{fill:#C0BDBE;}
	.st3{fill:#F4CC2B;}
</style>
<path class="st0" d="M107.7,435.3c0-133.9,0-267.9,0-402.3c127.6,0,255.3,0,382.9,0c-0.1,3.8-0.4,7.6-0.4,11.3
	c0,126.5,0,252.9,0,379.4c0,3.4,0,6.8,0,11.1c-4.3,0-7.7,0-11.1,0c-120,0-240,0-360.1,0C115.2,434.9,111.4,435.1,107.7,435.3z
	 M297.3,390c85,0.2,156-69.7,156.9-153.2c1-88.3-68.8-159.4-154.2-160.1c-88.1-0.8-159.1,69.4-159.1,156.2
	C140.9,319.6,210.8,389.9,297.3,390z"/>
<path class="st1" d="M107.7,435.3c3.8-0.1,7.6-0.4,11.3-0.4c120,0,240,0,360.1,0c3.4,0,6.8,0,11.1,0c0-4.3,0-7.7,0-11.1
	c0-126.5,0-252.9,0-379.4c0-3.8,0.3-7.6,0.4-11.3c0.6,2.6,1.7,5.2,1.7,7.9c0.1,131.9,0.1,263.8,0.1,396.1c-4.5,0-9,0-13.5,0
	c-121.1,0-242.2,0-363.3-0.1C112.9,436.9,110.3,435.8,107.7,435.3z"/>
<path class="st1" d="M297.3,390c-86.5-0.2-156.4-70.4-156.4-157.2c0-86.8,70.9-156.9,159.1-156.2c85.4,0.7,155.2,71.8,154.2,160.1
	C453.3,320.3,382.3,390.2,297.3,390z M331,110.6c2.6,1.7,5.3,3.5,7.9,5.2c0.6-0.9,1.2-1.8,2.2-3.3c-2.3,0.3-3.8,0.5-5.4,0.7
	c-0.6-0.6-1.1-1.3-1.7-1.9c2.4-2.6,4.8-5.1,8.2-8.7c-1.6-2.3-4.4-3.1-7.6,1.6c-1.4,2.1-2.5,4.4-3.8,6.7c-0.9-3-1.8-6-2.7-8.8
	c1.1,0.1,2.1,0.2,3.2,0.3c-0.5-1.2-0.7-3.2-1.5-3.5c-1.3-0.4-4.4,0.2-4.4,0.4c0,3.5,0.4,7,0.8,10.7c-0.4-0.2-1.7-0.7-3.1-1.2
	C324.4,115.4,325.2,115.6,331,110.6z M415.6,183.3c-1.2-1.7-2.4-3.4-4.8-6.8c4.6,0,7.8,0,12.5,0c-0.7-1.1-1.9-3.1-3.1-5.2
	c-3.9,2.4-7.7,4.7-11.6,7.1c2.4,1.5,4.9,3,7.3,4.6c-1.2,1.2-2.3,2.5-3.8,4c2.7,0.2,4.8,0.3,7.8,0.6c-2.1,2.4-3.5,3.9-6.5,7.2
	c6.5-2.7,10.6-4.3,16.8-6.8c-4.1-0.7-6-1-7.8-1.3c-0.3-0.6-0.6-1.2-0.9-1.9c1.7-0.7,3.5-1.3,5.2-2c-0.4-0.5-0.9-1-1.3-1.6
	C422.2,182,418.9,182.6,415.6,183.3z M364.3,124.5c0.6,3.9-0.2,9.3,5.5,7.2c-0.3-3.5-1.4-6.6-0.3-8.3c0.8-1.3,4.5-0.7,7.5-1
	c-0.1-5.5-3.4-5.7-7.6-3c-2.1,1.3-3.6,3.7-5.4,5.5c1.4-3.5,2.7-6.9,4.8-12.1c-2.6,2.1-3.8,3.1-5.2,4.2c-0.5-2-1-3.9-2-7.7
	c-2.7,5-4.5,8.4-5.3,9.9c2.1,3.7,3.4,5.9,4.6,8.1C362.1,126.3,363.2,125.4,364.3,124.5z M228.3,122c1.8,2,3.6,4.1,6.4,7.3
	c-0.3-3.2-0.5-4.9-0.7-6.9c2.4,1.1,4.2,1.9,6,2.7c-0.7-2.7-3-4.1-3.4-5.9c-0.9-3.9-1.1-7.9-6.8-6c-6.5,2.2-1.1,6-1.2,9.1
	c-2-1.3-4.1-2.6-7.3-4.7c2.5,4.8,4.2,8.1,5.9,11.4c-0.6,0.3-1.2,0.6-1.8,0.9c-2.5-2.7-5-5.4-7.6-8c-0.3,0.4-0.7,0.8-1,1.2
	c1.4,2.5,2.8,4.9,4.2,7.4c-4.5,1-8.4-10.9-14.2,0.9c3.6,2.9,7.4,8.4,11.5,8.6c4.6,0.2,4.2-5.7,2.4-9.7c2.7,0.6,5.4,1.3,8.1,1.9
	c-0.1-2.5-0.3-5.1-0.4-7.6C228.5,123.6,228.4,122.8,228.3,122z M219.7,330c-3.8-3.5-7.7-6.9-11.5-10.4c-0.5,0.5-0.9,1.1-1.4,1.6
	c0.1-2.1,0.2-4.2,0.2-4.7c-3.3,2.6-7.1,5.6-11,8.6c0.3,0.3,0.6,0.6,0.9,0.9c1.3-0.5,2.6-1,3.8-1.5c0,2.2,0,4.3,0,7.3
	c3.5-3,6.2-5.3,10.8-9.3c-2.6,6.2-4.1,10-6.4,15.4c5.3-2.5,9-4.2,12.8-5.9c-0.6,1.6-0.7,3.6-1.7,4.7c-4.7,5-1.5,7.2,3.1,9.8
	c3.2-4.2,6-8,9.7-12.9C225.2,332.1,222.5,331.1,219.7,330z M392.5,314.5c-1.6,2.3-3.3,4.6-4.9,6.9c3.6,2.3,7.1,4.7,10.7,7
	c0.8-1.7,2.3-3.3,2.2-5c0-1.8-1.5-3.6-2.3-5.5c5.2,4.8,8.4,2.5,11.1-2.8c-3.3-2.8-6.3-5.4-9.6-8.3c1.7-1.9,3.1-3.4,6-6.5
	c-0.2,4.2-0.3,6.3-0.4,8.9c2.1-1.4,3.4-2.3,5.3-3.5c0,2.7,0,4.6,0,8.7c2.4-3.9,3.6-6,5.1-8.4c-4.6-2.9-8.7-5.5-14-8.9
	c-1.9,5.3-3.4,9.5-5.3,14.9C396.4,312,394.5,313.2,392.5,314.5z M279.4,110.9c9.1-0.9,18.1-1.9,28.3-2.9c-0.1-0.1,1.2,1.3,3.6,3.9
	c0.4-5.9,0.7-10.2,1.1-14.5c-0.4-0.1-0.9-0.2-1.3-0.2c-0.5,1.4-1,2.8-1.6,4.4c-1.4-2-2.8-3.9-5.1-7.3c-0.6,5.4-1.1,8.9-1.5,12.5
	c-0.5,0-1-0.1-1.4-0.1c-1.4-3.8-2.8-7.7-4.9-13.6c-2.2,5.9-3.6,9.3-5.7,15c-0.9-5.9-1.5-9.2-2.3-14.3c-2.3,3-3.4,4.4-4.4,5.7
	c-1.4-1.3-2.7-2.3-5.3-4.6c0.3,6.7,0.6,11.5,0.8,16.2c-1.5-4.5-3-9-4.8-14.8c-0.7,3.1-1.2,4.9-1.7,7.3c-2.1-1.9-3.5-3.1-5.7-5.1
	c0.6,4.6,1,7.9,1.7,13.4c-3.5-5.1-5.8-8.4-8.1-11.7c-0.6,0.3-1.2,0.5-1.8,0.8c-0.2,4.3-0.5,8.5-0.7,13.2c-5.5-1.8-1.8-16.1-13.2-7.8
	c1.6,4.3,3.3,8.6,4.9,13c0.5-0.1,1.1-0.3,1.6-0.4c0-1.7,0-3.3,0-5.4c6.8,4.3,18.7,0.3,21.9-6.1C275.4,108.6,277.4,109.8,279.4,110.9
	z M177,269.5c0.4-2.7,0.7-5.5,1.1-8.2c-3.8,0.2-7.9-0.4-11.3,1c-1.6,0.7-1.8,5-2.8,8.3c5.9-0.6,9.6-0.9,13.3-1.3
	c-3.2,1.6-6.5,3.2-11.2,5.5c2.9,0.4,4.3,0.5,5.8,0.7c-1.1,2-2,3.6-3.5,6.1c4.5-0.9,8-1.6,13-2.5c-4.1,3.8-6.9,6.5-10.9,10.3
	c5.5,0,9.1,0,11.9,0c-1.8,3.7-3.5,7.2-5.2,10.8c4,0,8,0,11.9,0c-1.9,2.6-4.2,5.6-7.7,10.3c5.9-1.1,9.7-1.8,13.5-2.5
	c-0.1,1.8-0.3,3.5-0.4,5.3c1.8-0.6,3.5-1.2,5.3-1.7c-2.3,5.5-4.9,9.2-10.2,2.8c0,2.1,0.9,5.6,1.6,5.6c3.1-0.2,6.7-0.7,9.1-2.5
	c1.7-1.3,1.8-4.8,2.6-7.3c-2.7-0.6-5.5-1.2-8.2-1.8c1.3-1,2.6-2,4.7-3.5c-2-0.5-4-0.8-4-1.1c-0.2-9.7-10.4-14.7-11.4-24.3
	c-0.3-3.1-5.5-5.5-4.2-10.1C178.7,269.4,177.8,269.4,177,269.5z M306.3,278c-1.5-1.7-2.9-3.4-5.2-6c6.8-3.8,13.6-8.2,20.9-11.4
	c20.9-9.1,42.8-9.5,64.5-6.5c0.7-0.9,1.1-1.1,1-1.3c-5-34.5-9.9-69.1-15.1-103.5c-0.3-1.7-3.2-4.1-5.2-4.3
	c-25.4-3.4-49.4-1.5-68.1,19c-23.5-17.6-50.1-24.1-72.2-17.7c-5.7,35.4-11.4,70.9-17.2,107c31.7-1.6,62.9-4,87.2,21.3
	c-2.7-1.2-5.3-2.4-8.6-3.9c-0.3,2.3-0.6,3.9-0.8,5.6c-0.9,8,4.3,10.9,10.8,11.5C304.8,288.3,306.6,283.7,306.3,278z M261.3,339.1
	c-2.1-1.4-4-3.6-5.8-3.5c-1.6,0.1-4.1,2.6-4.2,4.3c-0.2,2.2,1.3,6.3,2.4,6.5c5.5,0.6,11.1,0.5,16.6-0.3c1-0.1,2.3-4.5,1.9-6.7
	C271.1,334,266.7,334.3,261.3,339.1z M430.8,215.5c0.9-3.7,1.7-6.9,2.5-10.1c-4.1,0.1-8.5-0.7-12.1,0.6c-1.2,0.4-0.2,6.5-0.2,10
	c0.2,0,0.5-0.1,0.7-0.1c-0.5,2.5-1,4.9-1.3,6.3c4.9-1.9,9.2-3.6,14.2-5.6C432.3,215.9,430.6,215.4,430.8,215.5z M178.3,189.4
	c8.5-2.9,9-4.7,2.8-11.8c2.8,0,4.9,0,7.1,0c0.1-0.4,0.1-0.8,0.2-1.2c-4-1.9-8-3.8-14.2-6.8c2.6,3.7,3.7,5.4,5.5,7.9
	c-3.1-0.3-5-0.6-9.5-1.1c5.5,3.4,8.8,5.5,12.1,7.5c-0.3,0.7-0.6,1.4-0.8,2.1c-3.8-1.2-7.5-2.5-10.4-3.4c-0.5,2.1-1.1,4.5-1.7,7.1
	c4,1.5,8.2,3.1,12.4,4.7c0.2-0.4,0.5-0.8,0.7-1.2C181.2,192.1,180.1,191.1,178.3,189.4z M428.2,222.9c-3.2,3.2-5.3,5.3-7.5,7.4
	c2.5,1.7,5.2,5,7.6,4.8c2.9-0.3,5.5-3.5,8.2-5.4C434.2,227.8,431.8,225.8,428.2,222.9z M200,159c-4.1-2.6-8.2-5.3-11.3-7.2
	c-2.7,3.5-4.4,5.6-6.3,8.1c3.8,2.6,7.6,5.2,11.3,7.7C195.6,164.9,197.3,162.6,200,159z M282.3,345.8c6.4,0.7,12.2,1.3,17.2,1.8
	c-1.7-4.1-3.1-7.6-5-12.2c-0.8,3.2-1.3,5.5-2.1,8.5c-1.9-3.3-3.5-5.9-5.9-10.1C284.7,339,283.4,342.6,282.3,345.8z M330.7,340
	c-1.8-1.6-3.4-3-5.9-5.2c0,4.9,0,8.4,0,11.4c1.8-0.5,3.4-1.5,4.8-1.3c3.5,0.4,7.8,2.9,10.1,1.6c2-1.2,1.8-6.3,2.5-9.7
	c-0.6-0.1-1.3-0.2-1.9-0.3c-0.5,2.4-0.9,4.8-1.4,7.1c-0.8,0.3-1.6,0.6-2.3,0.9c-1.5-2.7-3-5.4-4.6-8.2
	C331.7,337.4,331.3,338.4,330.7,340z M390.4,154.1c4.1-5.3,6.8-8.3,8.9-11.8c0.4-0.7-1.4-2.8-2.2-4.3c-3.4,2.3-7.4,4.1-10,7.1
	C386.3,146,388.9,150,390.4,154.1z M308,350.7c2.2-4.5,4.3-6.8,4-8.7c-0.5-2.5-2.9-4.5-4.5-6.8c-1.9,2.1-5,4.1-5.2,6.3
	C302.1,343.8,305,346.2,308,350.7z M431.2,191.2c-6.5,1.9-11,3.2-17.2,5c3.3,1,4.7,1.5,6,1.9c-1,1.8-1.9,3.3-3.6,6.2
	c6.1-1.6,10.5-2.8,15-4c-0.1-0.5-0.1-1-0.2-1.5c-1.5-0.2-3-0.4-4.8-0.7C427.7,196.3,428.9,194.6,431.2,191.2z M191.3,146.9
	c-0.6,0.8-1.2,1.6-1.7,2.4c4.2,2.3,8.3,4.7,12.7,6.7c0.3,0.1,3.2-3.8,2.9-4.1c-2.9-3.4-6.2-6.4-9.3-9.6c-0.5,0.5-1,1-1.5,1.5
	c2.7,2.8,5.3,5.6,8,8.4c-0.5,0.5-1.1,1.1-1.6,1.6C197.6,151.4,194.5,149.1,191.3,146.9z M408,283.1c6.7,2.6,11,4.2,16.9,6.5
	c-1.8-2.8-2.5-3.8-3.4-5.1c2-0.8,3.7-1.5,7.1-2.9c-5.9-2.2-10.2-3.7-16-5.8c2.1,2.6,3.1,3.8,4.1,5
	C414.7,281.3,412.7,281.8,408,283.1z M162.1,245.9c0.1,0.9,0.2,1.8,0.3,2.7c4.5-1.2,9-2.3,13.3-3.9c0.4-0.1,0-4.5-0.4-4.6
	c-4.5-0.5-9-0.6-13.5-0.7c-0.3,0-0.7,0.7-1.5,1.7c4.2,0.3,8.1,0.6,11.9,0.8c0,0.7,0,1.3,0,2C168.9,244.6,165.5,245.2,162.1,245.9z
	 M357.6,110.5c0.2-0.6,0.4-1.2,0.6-1.8c-2.1-0.9-4.3-1.9-6.8-3c-2.3,5.1-4.2,9.4-6.5,14.3c3.2,1,5.4,1.6,8.9,2.7
	c-2.2-3-3.3-4.6-4.8-6.7c2.6-0.4,4.4-0.7,6.5-1c-1.2-1.7-2.2-3.1-3.6-5.1C354.4,110.2,356,110.3,357.6,110.5z M164,207.7
	c-0.2,0.5-0.3,0.9-0.5,1.4c1.4,1.1,2.8,2.2,4.8,3.8c-2.7,1-4.5,1.6-8.2,2.9c6.6,1.1,11,1.8,15.5,2.6c0.2-0.4,0.3-0.9,0.5-1.3
	c-1.9-1.1-3.7-2.2-7-4.2c3.7-1,5.7-1.5,7.8-2.1c-0.1-0.4-0.2-0.7-0.2-1.1C172.3,209.1,168.2,208.4,164,207.7z M434.5,246.7
	c0.4-2.1,1.4-5.8,1.1-6c-3.6-1.4-7.3-2.6-11.1-2.8c-1.3-0.1-3.4,2.9-3.8,4.7c-0.2,1.1,1.9,3.5,3.5,3.9c1.3,0.4,3.2-1,6.8-2.3
	c-4.1-1.1-5.6-1.5-8.6-2.3C430,237.7,432.9,239.6,434.5,246.7z M168.3,254.1c-2,1.7-3.4,3-6.4,5.7c6.5-1.1,10.9-1.9,15.3-2.6
	c0-0.4-0.1-0.9-0.1-1.3c-2-0.4-4.1-0.9-7.9-1.7c3.3-1.8,5-2.8,6.7-3.7c-0.1-0.4-0.2-0.8-0.3-1.3c-4.4,0.5-8.8,1.1-13.1,1.6
	c0,0.5-0.1,1-0.1,1.5C164,252.8,165.7,253.3,168.3,254.1z M172.6,223.5c-0.4,1.2-0.9,3-1.4,4.8c0.8,0.2,1.6,0.5,2.5,0.7
	c0.6-2.4,1.3-4.9,1.9-7.3c-3.8,0.2-7.6,0.3-11.4,0.5c0,0.3-0.1-0.9-0.2-2.1c-1.1,0.7-3.2,1.3-3.2,2c-0.1,1.5,1.2,4.4,1.3,4.3
	C165.5,225.7,168.9,224.6,172.6,223.5z M377.5,139.4c0.4-0.3,0.8-0.7,1.2-1c-0.9-1.8-1.8-3.6-3.1-6.4c3,0.5,4.7,0.9,6.8,1.2
	c-0.8-2.3-1.4-4-2.1-6.2c2.5,0.8,4.2,1.4,5.9,1.9c0.3-0.5,0.6-1,0.9-1.5c-2-1.6-3.9-3.1-6.3-5.1c-3.4,4.6-6.3,8.4-9.4,12.4
	C374,136.7,375.8,138.1,377.5,139.4z M430,272.1c0.2-0.9,0.4-1.8,0.6-2.6c-4.6-0.5-9.3-1.2-14-1.4c-0.4,0-1.6,4.2-1.4,4.3
	c4.2,2,8.6,3.7,13,5.4c0.1,0,0.3-0.3,1-1c-3.8-1.7-7.4-3.3-11.1-4.9c0.2-0.7,0.5-1.4,0.7-2.1C422.6,270.6,426.3,271.4,430,272.1z
	 M402.3,168.2c1.7,2.7,3,4.7,5.4,8.7c0-4.5,0-6.7,0-9.5c2.2,1.6,3.6,2.6,5.7,4.1c0-2.8,0-4.5,0-6.6c1.9,0.9,3.4,1.7,4.9,2.4
	c0.3-0.4,0.6-0.7,0.9-1.1c-1.3-1.9-2.6-3.8-3.9-5.8C410.8,163.2,407.1,165.4,402.3,168.2z M178.4,207.9c0.5-3.2,0.9-5.6,1.7-10.4
	c-2.8,3.7-4.1,5.3-5.9,7.6c-1-2.7-1.6-4.4-2.3-6.2c-1.4,1.3-2.6,2.3-3.9,3.5c-0.6-2-1.1-3.5-2.4-7.3c-1.1,4.6-1.6,6.8-2.2,9.3
	C168.5,205.6,172.7,206.6,178.4,207.9z M316.4,271.8c-0.1-0.2-0.2-0.4-0.4-0.5c-0.2-0.1-0.5,0-0.7,0.1c0.2,0.2,0.3,0.5,0.5,0.7
	C315.9,272.2,316.2,271.9,316.4,271.8z"/>
<path d="M287.5,276.2c0.3-1.7,0.5-3.3,0.8-5.6c3.2,1.5,5.9,2.7,8.6,3.9c-24.3-25.3-55.5-22.9-87.2-21.3c5.8-36.2,11.5-71.7,17.2-107
	c22.1-6.4,48.7,0.1,72.2,17.7c18.6-20.5,42.7-22.5,68.1-19c1.9,0.3,4.9,2.6,5.2,4.3c5.2,34.5,10.2,69,15.1,103.5
	c0,0.2-0.3,0.4-1,1.3c-21.7-3-43.6-2.5-64.5,6.5c-7.3,3.2-14.1,7.6-20.9,11.4c2.3,2.7,3.8,4.3,5.2,6c-3-0.6-7.7-2.8-8.6-1.7
	C293.7,281,290.8,276.7,287.5,276.2z M297,267.2c15.5-5.7,28.6-12.3,42.5-15.1c14.3-2.9,29.3-2.1,44.4-2.9c0-0.9,0.2-2.4,0-3.7
	c-4.6-31-9.1-62.1-14.1-93.1c-0.4-2.2-4.4-5.2-6.9-5.4c-24.5-2.1-47.2,1.4-63.7,23.2c-14.3-16.2-32.7-22.1-53.2-23.1
	c-14.6-0.7-15.6-0.1-17.7,13.8c-0.2,1.1-0.5,2.3-0.7,3.4c-4.7,28.3-9.4,56.5-14.3,85.6C244,248.6,274.3,246.6,297,267.2z"/>
<path d="M194.8,308c-3.8,0.7-7.6,1.4-13.5,2.4c3.5-4.7,5.8-7.8,7.7-10.3c-3.9,0-7.9,0-11.9,0c1.7-3.5,3.4-7,5.2-10.8
	c-2.8,0-6.4,0-11.9,0c4.1-3.8,6.9-6.5,10.9-10.3c-5,1-8.5,1.7-13,2.5c1.4-2.5,2.3-4.1,3.5-6.1c-1.5-0.2-2.9-0.4-5.8-0.7
	c4.7-2.3,8-3.9,11.2-5.5l-0.3,0.2c0.9-0.1,1.7-0.2,2.6-0.2c-1.2,4.6,3.9,7,4.2,10.1c0.9,9.7,11.2,14.6,11.4,24.3c0,0.3,2,0.6,4,1.1
	c-2,1.5-3.3,2.5-4.7,3.5C194.5,308.3,194.8,308,194.8,308z"/>
<path d="M279.4,111.2c-0.2-4.8-0.5-9.6-0.8-16.3c2.6,2.3,3.8,3.4,5.3,4.6c1-1.3,2.1-2.7,4.4-5.7c0.8,5,1.4,8.4,2.3,14.3
	c2.2-5.7,3.5-9.2,5.7-15c2.1,5.9,3.5,9.7,4.9,13.6c0.5,0,1,0.1,1.4,0.1c0.4-3.6,0.9-7.1,1.5-12.5c2.4,3.4,3.7,5.2,5.1,7.3
	c0.6-1.6,1.1-3,1.6-4.4c0.4,0.1,0.9,0.2,1.3,0.2c-0.3,4.3-0.6,8.7-1.1,14.5c-2.4-2.6-3.7-4-3.6-3.9c-10.2,1.1-19.2,2-28.3,2.9
	L279.4,111.2z"/>
<path d="M279.4,110.9c-2-1.1-4-2.3-5.9-3.4c-3.2,6.5-15.1,10.5-21.9,6.1c0,2,0,3.7,0,5.4c-0.5,0.1-1.1,0.3-1.6,0.4
	c-1.6-4.3-3.3-8.7-4.9-13c11.5-8.3,7.7,6,13.2,7.8c0.3-4.7,0.5-8.9,0.7-13.2c0.6-0.3,1.2-0.5,1.8-0.8c2.3,3.3,4.5,6.6,8.1,11.7
	c-0.7-5.5-1.1-8.8-1.7-13.4c2.2,1.9,3.6,3.2,5.7,5.1c0.6-2.5,1-4.2,1.7-7.3c1.9,5.7,3.4,10.3,4.9,14.8
	C279.4,111.2,279.4,110.9,279.4,110.9z"/>
<path d="M392.5,314.5c1.9-1.3,3.9-2.5,3.8-2.5c1.9-5.4,3.4-9.5,5.3-14.9c5.4,3.4,9.4,5.9,14,8.9c-1.5,2.5-2.8,4.5-5.1,8.4
	c0-4,0-6,0-8.7c-1.9,1.3-3.2,2.2-5.3,3.5c0.1-2.7,0.2-4.7,0.4-8.9c-2.8,3.1-4.3,4.6-6,6.5c3.3,2.8,6.3,5.5,9.6,8.3
	c-2.7,5.3-5.9,7.7-11.1,2.8C396.3,316.8,394.4,315.7,392.5,314.5z"/>
<path d="M261.3,339.1c5.4-4.9,9.8-5.1,10.8,0.3c0.4,2.2-0.9,6.6-1.9,6.7c-5.5,0.7-11.1,0.9-16.6,0.3c-1.1-0.1-2.6-4.3-2.4-6.5
	c0.2-1.7,2.7-4.2,4.2-4.3C257.3,335.6,259.2,337.8,261.3,339.1z"/>
<path d="M217.9,332c-3.7,1.7-7.4,3.5-12.8,5.9c2.2-5.4,3.8-9.1,6.4-15.4c-4.7,4-7.3,6.3-10.8,9.3c0-2.9,0-5.1,0-7.3
	c-1.3,0.5-2.5,1-3.8,1.5c-0.3-0.3-0.6-0.6-0.9-0.9c3.9-3,7.7-6,11-8.6c0,0.5-0.1,2.6-0.2,4.7c0.5-0.5,0.9-1.1,1.4-1.6
	c3.8,3.5,7.7,6.9,11.5,10.4C219.1,330.7,218.5,331.3,217.9,332z"/>
<path d="M430.8,215.5c-0.2-0.1,1.5,0.4,3.9,1.1c-5,2-9.3,3.7-14.2,5.6c0.3-1.4,0.8-3.9,1.3-6.3c-0.2,0-0.5,0.1-0.7,0.1
	c0-3.5-1-9.5,0.2-10c3.6-1.4,8-0.6,12.1-0.6C432.5,208.5,431.7,211.8,430.8,215.5z"/>
<path class="st1" d="M287.5,276.2c3.3,0.5,6.2,4.8,10.2,0.1c0.9-1.1,5.7,1,8.6,1.7c0.3,5.7-1.5,10.3-8,9.7
	C291.8,287.1,286.6,284.3,287.5,276.2z"/>
<path d="M178.3,189.4c1.8,1.7,2.9,2.7,4,3.8c-0.2,0.4-0.5,0.8-0.7,1.2c-4.2-1.6-8.3-3.2-12.4-4.7c0.6-2.6,1.2-4.9,1.7-7.1
	c2.9,0.9,6.6,2.2,10.4,3.4c0.3-0.7,0.6-1.4,0.8-2.1c-3.3-2-6.6-4.1-12.1-7.5c4.5,0.5,6.4,0.7,9.5,1.1c-1.8-2.5-2.9-4.2-5.5-7.9
	c6.2,3,10.2,4.9,14.2,6.8c-0.1,0.4-0.1,0.8-0.2,1.2c-2.1,0-4.3,0-7.1,0C187.3,184.7,186.8,186.5,178.3,189.4z"/>
<path d="M428.2,222.9c3.6,3,5.9,4.9,8.3,6.8c-2.7,1.9-5.3,5.1-8.2,5.4c-2.4,0.2-5-3.1-7.6-4.8C422.9,228.2,425.1,226,428.2,222.9z"
	/>
<path d="M220.8,130.1c1.7,4.1,2.2,9.9-2.4,9.7c-4.1-0.2-7.9-5.7-11.5-8.6c5.8-11.8,9.7,0.1,14.2-0.9
	C221.1,130.4,220.8,130.1,220.8,130.1z"/>
<path d="M200,159c-2.7,3.6-4.3,5.9-6.3,8.6c-3.7-2.5-7.5-5.1-11.3-7.7c1.9-2.5,3.6-4.6,6.3-8.1C191.7,153.7,195.9,156.4,200,159z"/>
<path d="M217.9,332c0.6-0.7,1.2-1.4,1.8-2c2.7,1.1,5.5,2.1,9.3,3.6c-3.7,4.9-6.5,8.7-9.7,12.9c-4.6-2.6-7.8-4.8-3.1-9.8
	C217.3,335.6,217.4,333.6,217.9,332z"/>
<path d="M282.3,345.8c1.1-3.1,2.4-6.8,4.2-12c2.5,4.2,4,6.8,5.9,10.1c0.7-3,1.3-5.3,2.1-8.5c1.8,4.5,3.3,8,5,12.2
	C294.5,347,288.7,346.4,282.3,345.8z"/>
<path d="M177.2,269.3c-3.7,0.4-7.4,0.7-13.3,1.3c1-3.3,1.2-7.6,2.8-8.3c3.3-1.4,7.5-0.8,11.3-1c-0.4,2.7-0.7,5.5-1.1,8.2
	C177,269.5,177.2,269.3,177.2,269.3z"/>
<path d="M392.5,314.5c1.9,1.2,3.8,2.3,5.7,3.5c0.8,1.8,2.2,3.6,2.3,5.5c0,1.6-1.4,3.3-2.2,5c-3.6-2.3-7.1-4.7-10.7-7
	C389.2,319.1,390.9,316.8,392.5,314.5z"/>
<path d="M330.7,340c0.6-1.6,1-2.6,1.4-3.6c1.5,2.7,3,5.5,4.6,8.2c0.8-0.3,1.6-0.6,2.3-0.9c0.5-2.4,0.9-4.8,1.4-7.1
	c0.6,0.1,1.3,0.2,1.9,0.3c-0.8,3.4-0.5,8.6-2.5,9.7c-2.3,1.3-6.6-1.2-10.1-1.6c-1.4-0.2-3,0.8-4.8,1.3c0-3,0-6.5,0-11.4
	C327.3,337,328.8,338.4,330.7,340z"/>
<path d="M228.6,122.3c0.1-3.1-5.3-6.9,1.2-9.1c5.6-1.9,5.8,2.1,6.8,6c0.4,1.8,2.7,3.2,3.4,5.9c-1.8-0.8-3.6-1.6-6-2.7
	c0.2,2,0.4,3.7,0.7,6.9c-2.8-3.2-4.6-5.3-6.4-7.3L228.6,122.3z"/>
<path d="M390.4,154.1c-1.6-4.1-4.1-8-3.2-9c2.6-3,6.6-4.8,10-7.1c0.8,1.5,2.6,3.6,2.2,4.3C397.2,145.7,394.5,148.8,390.4,154.1z"/>
<path d="M308,350.7c-3-4.5-5.9-6.9-5.7-9.1c0.2-2.2,3.3-4.2,5.2-6.3c1.6,2.2,4,4.3,4.5,6.8C312.3,343.9,310.2,346.2,308,350.7z"/>
<path d="M431.2,191.2c-2.4,3.5-3.5,5.1-4.8,6.9c1.8,0.3,3.3,0.5,4.8,0.7c0.1,0.5,0.1,1,0.2,1.5c-4.5,1.2-9,2.4-15,4
	c1.7-2.9,2.6-4.5,3.6-6.2c-1.4-0.4-2.8-0.9-6-1.9C420.2,194.3,424.8,193,431.2,191.2z"/>
<path d="M194.5,308.3c2.7,0.6,5.5,1.2,8.2,1.8c-0.8,2.5-0.9,6-2.6,7.3c-2.4,1.8-6,2.3-9.1,2.5c-0.6,0-1.5-3.5-1.6-5.6
	c5.3,6.4,8,2.7,10.2-2.8c-1.8,0.6-3.5,1.2-5.3,1.7c0.1-1.8,0.3-3.5,0.4-5.3C194.8,308,194.5,308.3,194.5,308.3z"/>
<path d="M364.3,124.5c-1.1,0.9-2.2,1.7-3.4,2.7c-1.2-2.2-2.5-4.3-4.6-8.1c0.8-1.5,2.6-4.9,5.3-9.9c1,3.7,1.5,5.7,2,7.7
	c1.4-1.1,2.6-2.1,5.2-4.2c-2.1,5.2-3.4,8.6-4.8,12.1L364.3,124.5z"/>
<path d="M191.3,146.9c3.2,2.3,6.3,4.6,9.5,6.8c0.5-0.5,1.1-1.1,1.6-1.6c-2.7-2.8-5.3-5.6-8-8.4c0.5-0.5,1-1,1.5-1.5
	c3.2,3.1,6.5,6.2,9.3,9.6c0.3,0.4-2.6,4.3-2.9,4.1c-4.3-2-8.5-4.4-12.7-6.7C190.2,148.4,190.7,147.6,191.3,146.9z"/>
<path d="M415.7,183.3c3.3-0.7,6.6-1.3,9.8-2c0.4,0.5,0.9,1,1.3,1.6c-1.7,0.7-3.5,1.3-5.2,2c0.3,0.6,0.6,1.2,0.9,1.9
	c1.8,0.3,3.7,0.6,7.8,1.3c-6.2,2.5-10.3,4.2-16.8,6.8c3-3.3,4.4-4.9,6.5-7.2c-3-0.2-5-0.4-7.8-0.6c1.5-1.6,2.6-2.8,3.8-4
	C416,183,415.7,183.3,415.7,183.3z"/>
<path d="M408,283.1c4.6-1.3,6.7-1.8,8.7-2.4c-1-1.2-2-2.4-4.1-5c5.9,2.1,10.1,3.7,16,5.8c-3.3,1.4-5.1,2.1-7.1,2.9
	c0.9,1.3,1.6,2.4,3.4,5.1C419,287.3,414.7,285.7,408,283.1z"/>
<path d="M162.1,245.9c3.4-0.7,6.8-1.3,10.2-2c0-0.7,0-1.3,0-2c-3.8-0.3-7.7-0.5-11.9-0.8c0.8-1,1.1-1.7,1.5-1.7
	c4.5,0.1,9,0.2,13.5,0.7c0.3,0,0.8,4.4,0.4,4.6c-4.4,1.6-8.9,2.7-13.3,3.9C162.3,247.7,162.2,246.8,162.1,245.9z"/>
<path d="M357.6,110.5c-1.6-0.1-3.1-0.3-5.8-0.5c1.4,2,2.4,3.3,3.6,5.1c-2,0.3-3.8,0.6-6.5,1c1.5,2.1,2.7,3.7,4.8,6.7
	c-3.5-1.1-5.7-1.7-8.9-2.7c2.2-5,4.2-9.3,6.5-14.3c2.5,1.1,4.7,2,6.8,3C357.9,109.2,357.7,109.8,357.6,110.5z"/>
<path d="M164,207.7c4.2,0.7,8.4,1.4,12.6,2.1c0.1,0.4,0.2,0.7,0.2,1.1c-2,0.5-4,1.1-7.8,2.1c3.3,2,5.2,3.1,7,4.2
	c-0.2,0.4-0.3,0.9-0.5,1.3c-4.4-0.7-8.9-1.5-15.5-2.6c3.7-1.3,5.6-2,8.2-2.9c-2-1.6-3.4-2.7-4.8-3.8
	C163.7,208.6,163.8,208.2,164,207.7z"/>
<path d="M416,183c-2.4-1.5-4.9-3-7.3-4.6c3.9-2.4,7.7-4.7,11.6-7.1c1.2,2,2.4,4,3.1,5.2c-4.7,0-7.9,0-12.5,0
	c2.4,3.4,3.6,5.1,4.8,6.8C415.7,183.3,416,183,416,183z"/>
<path d="M434.5,246.7c-1.6-7.2-4.4-9-12.1-4.7c2.9,0.8,4.4,1.2,8.6,2.3c-3.6,1.3-5.5,2.8-6.8,2.3c-1.5-0.5-3.7-2.8-3.5-3.9
	c0.4-1.8,2.5-4.8,3.8-4.7c3.8,0.2,7.5,1.4,11.1,2.8C435.9,240.9,434.9,244.6,434.5,246.7z"/>
<path d="M168.3,254.1c-2.6-0.8-4.3-1.3-6.1-1.8c0-0.5,0.1-1,0.1-1.5c4.4-0.5,8.8-1.1,13.1-1.6c0.1,0.4,0.2,0.8,0.3,1.3
	c-1.7,0.9-3.4,1.9-6.7,3.7c3.9,0.8,5.9,1.2,7.9,1.7c0,0.4,0.1,0.9,0.1,1.3c-4.4,0.7-8.7,1.5-15.3,2.6
	C165,257,166.4,255.8,168.3,254.1z"/>
<path d="M228.3,122c0.1,0.8,0.2,1.6,0.2,2.5c0.2,2.5,0.3,5.1,0.4,7.6c-2.7-0.6-5.4-1.3-8.2-1.9c0,0,0.3,0.3,0.3,0.2
	c-1.4-2.5-2.8-4.9-4.2-7.4c0.3-0.4,0.7-0.8,1-1.2c2.5,2.7,5,5.4,7.6,8c0.6-0.3,1.2-0.6,1.8-0.9c-1.7-3.3-3.4-6.7-5.9-11.4
	c3.3,2.1,5.3,3.4,7.3,4.7C228.6,122.3,228.3,122,228.3,122z"/>
<path d="M172.6,223.5c-3.7,1.1-7.1,2.2-10.6,3c-0.2,0-1.5-2.9-1.3-4.3c0.1-0.8,2.1-1.4,3.2-2c0.1,1.2,0.3,2.3,0.2,2.1
	c3.8-0.2,7.6-0.3,11.4-0.5c-0.6,2.4-1.3,4.9-1.9,7.3c-0.8-0.2-1.6-0.5-2.5-0.7C171.7,226.5,172.2,224.7,172.6,223.5z"/>
<path d="M377.5,139.4c-1.8-1.3-3.6-2.7-6.1-4.6c3-4,5.9-7.8,9.4-12.4c2.4,1.9,4.4,3.5,6.3,5.1c-0.3,0.5-0.6,1-0.9,1.5
	c-1.7-0.6-3.4-1.1-5.9-1.9c0.7,2.2,1.3,3.8,2.1,6.2c-2.1-0.4-3.8-0.7-6.8-1.2c1.4,2.8,2.3,4.6,3.1,6.4
	C378.4,138.7,378,139.1,377.5,139.4z"/>
<path d="M430,272.1c-3.7-0.8-7.4-1.5-11.1-2.3c-0.2,0.7-0.5,1.4-0.7,2.1c3.6,1.6,7.3,3.2,11.1,4.9c-0.7,0.7-0.9,1-1,1
	c-4.4-1.7-8.7-3.4-13-5.4c-0.2-0.1,0.9-4.3,1.4-4.3c4.7,0.2,9.3,0.8,14,1.4C430.4,270.4,430.2,271.2,430,272.1z"/>
<path d="M402.3,168.2c4.8-2.9,8.5-5.1,13-7.7c1.4,2,2.7,3.9,3.9,5.8c-0.3,0.4-0.6,0.7-0.9,1.1c-1.5-0.8-3-1.5-4.9-2.4
	c0,2,0,3.8,0,6.6c-2.1-1.5-3.5-2.5-5.7-4.1c0,2.9,0,5,0,9.5C405.3,173,404,171,402.3,168.2z"/>
<path d="M331,110.6c-5.8,5-6.6,4.8-7.9-1.9c1.4,0.5,2.7,1,3.1,1.2c-0.3-3.7-0.7-7.2-0.8-10.7c0-0.2,3.1-0.9,4.4-0.4
	c0.8,0.3,1,2.3,1.5,3.5c-1.1-0.1-2.1-0.2-3.2-0.3c0.9,2.8,1.8,5.8,2.7,8.8L331,110.6z"/>
<path d="M178.4,207.9c-5.7-1.3-9.9-2.3-14.9-3.5c0.6-2.6,1.1-4.8,2.2-9.3c1.3,3.9,1.7,5.4,2.4,7.3c1.4-1.2,2.5-2.2,3.9-3.5
	c0.7,1.8,1.3,3.6,2.3,6.2c1.8-2.3,3-4,5.9-7.6C179.3,202.3,178.9,204.7,178.4,207.9z"/>
<path d="M330.8,110.8c1.2-2.2,2.3-4.6,3.8-6.7c3.2-4.7,6-3.9,7.6-1.6c-3.4,3.6-5.8,6.2-8.2,8.7c0.6,0.6,1.1,1.3,1.7,1.9
	c1.5-0.2,3-0.4,5.4-0.7c-1,1.5-1.6,2.4-2.2,3.3c-2.6-1.7-5.3-3.5-7.9-5.2C331,110.6,330.8,110.8,330.8,110.8z"/>
<path d="M364.1,124.8c1.8-1.9,3.3-4.2,5.4-5.5c4.2-2.7,7.5-2.4,7.6,3c-3,0.3-6.7-0.3-7.5,1c-1.1,1.7,0.1,4.8,0.3,8.3
	c-5.7,2.2-4.9-3.3-5.5-7.1C364.3,124.5,364.1,124.8,364.1,124.8z"/>
<path d="M316.4,271.8c-0.2,0.1-0.5,0.4-0.6,0.3c-0.2-0.2-0.3-0.5-0.5-0.7c0.2,0,0.5-0.1,0.7-0.1
	C316.2,271.4,316.3,271.6,316.4,271.8z"/>
<path class="st2" d="M297,267.2c-22.7-20.6-53-18.6-83.8-17.3c4.9-29.1,9.6-57.4,14.3-85.6c0.2-1.1,0.5-2.3,0.7-3.4
	c2.1-13.9,3.1-14.6,17.7-13.8c20.5,1,38.9,6.9,53.2,23.1c16.5-21.8,39.2-25.3,63.7-23.2c2.5,0.2,6.6,3.2,6.9,5.4
	c5,31,9.5,62,14.1,93.1c0.2,1.4,0,2.8,0,3.7c-15.1,0.8-30.1,0-44.4,2.9C325.6,254.9,312.5,261.5,297,267.2z M295.4,227.1
	c-3.4,8.7-1.3,15.4,6.6,24c2.9-8.5,5-15,7.2-21.5C304.9,228.8,300.6,228.1,295.4,227.1z"/>
<path class="st3" d="M295.4,227.1c5.2,0.9,9.5,1.7,13.8,2.5c-2.2,6.5-4.4,13.1-7.2,21.5C294.1,242.6,292,235.8,295.4,227.1z"/>
</svg>
