<?xml version="1.0" encoding="utf-8"?>
<!-- Generator: Adobe Illustrator 26.0.1, SVG Export Plug-In . SVG Version: 6.00 Build 0)  -->
<svg version="1.1" id="Layer_1" xmlns="http://www.w3.org/2000/svg" xmlns:xlink="http://www.w3.org/1999/xlink" x="0px" y="0px"
	 viewBox="0 0 600 600" style="enable-background:new 0 0 600 600;" xml:space="preserve">
<style type="text/css">
	.st0{fill:#DDD0C8;}
	.st1{fill:#CCA793;}
</style>
<g>
	<g>
		<line class="st0" x1="136.9" y1="225.1" x2="136.9" y2="225.1"/>
		<path class="st0" d="M226.8,7.1c-120.4,0-218,97.6-218,218.1s97.6,218,218,218s218-97.6,218-218S347.2,7.1,226.8,7.1z
			 M226.8,388.4c-90.2,0-163.3-73.1-163.3-163.3c0-90.2,73.1-163.3,163.3-163.3c90.2,0,163.3,73.1,163.3,163.3
			C390.1,315.3,317,388.4,226.8,388.4z"/>
		<path class="st1" d="M226.8,98.9v36.4c-49.6,0-89.8,40.2-89.8,89.8h-36.4C100.6,155.4,157.1,98.9,226.8,98.9z"/>
	</g>
	<path class="st0" d="M497.4,576.9L366.5,446.1l77.9-77.9L575.2,499c21.4,21.4,21.4,56,0,77.4l-0.5,0.5
		C553.4,598.3,518.7,598.3,497.4,576.9z"/>
</g>
</svg>
