<?xml version="1.0" encoding="utf-8"?>
<!-- Generator: Adobe Illustrator 26.0.1, SVG Export Plug-In . SVG Version: 6.00 Build 0)  -->
<svg version="1.1" id="Layer_1" xmlns="http://www.w3.org/2000/svg" xmlns:xlink="http://www.w3.org/1999/xlink" x="0px" y="0px"
	 viewBox="0 0 600 600" style="enable-background:new 0 0 600 600;" xml:space="preserve">
<style type="text/css">
	.st0{fill:#CCB2A0;}
	.st1{fill:#DFD5CC;}
</style>
<g>
	<g>
		<path class="st0" d="M160.4,234.7c-36.7,0.2-66.4-29.1-66.6-65.5c-0.2-36.6,29.1-65.7,66-65.8c37-0.1,66.3,28.6,66.5,65.3
			C226.6,205,197.2,234.5,160.4,234.7z M160.5,209c22.1-0.2,39.9-17.9,40-39.8c0.1-22.4-17.9-40.7-40.3-40.8
			c-22.2-0.1-40.6,18.3-40.5,40.6C119.8,191.4,137.8,209.1,160.5,209z"/>
	</g>
	<g>
		<path class="st1" d="M160.5,208.8c-22.7,0.2-40.7-17.5-40.8-40.1c-0.1-22.3,18.3-40.7,40.5-40.6c22.4,0.1,40.3,18.4,40.3,40.8
			C200.4,191,182.6,208.7,160.5,208.8z"/>
	</g>
	<g>
		<path class="st1" d="M70.9,129.7c3.5,2.1,6.3,5,8.3,8.6c2,3.6,3,7.7,3,12.3v1.4c0,4.5-1,8.6-3,12.3c-2,3.7-4.7,6.6-8.3,8.6
			c-3.5,2.1-7.6,3.1-12.1,3.1H41.3v23.6H17.8v-73h40.9C63.3,126.6,67.3,127.7,70.9,129.7z M41.3,159h9.7c2.5,0,4.3-0.6,5.6-1.9
			c1.2-1.3,1.9-3,1.9-5.2V151c0-2.3-0.6-4-1.9-5.3c-1.2-1.2-3.1-1.9-5.6-1.9h-9.7V159z"/>
	</g>
	<g>
		<path class="st1" d="M279.6,142.8c1.3,0.4,1.9,0.6,1.9,0.7v17.7h-6.8c-4.4,0-7.6,1.1-9.5,3.4c-1.9,2.3-2.9,5.6-2.9,10.1v24.9
			h-21.1v-56h17.3l1.4,8.5c1.3-3.3,3.3-5.7,6-7.4c2.8-1.7,5.9-2.5,9.3-2.5C276.9,142.2,278.4,142.4,279.6,142.8z"/>
		<path class="st1" d="M331,143.6v14.3h-11.9v21.3c0,2.5,0.4,4.4,1.3,5.6c0.8,1.2,2.4,1.8,4.7,1.8h5.9V199c-1.7,0.6-3.9,1-6.6,1.4
			c-2.7,0.4-5,0.5-7,0.5c-6.2,0-11-1.1-14.4-3.4c-3.4-2.3-5-6.1-5-11.6v-28h-7.9v-14.3h8.7l4.6-17h15.7v17H331z"/>
		<path class="st1" d="M369.4,122c2.3,0.4,4.2,0.8,5.6,1.3v12.4h-4.9c-2.3,0-3.8,0.4-4.7,1.3s-1.3,2.3-1.3,4.3v2.2H375v14.3h-10.8
			v41.7h-21.1v-41.7h-7.9v-14.3h7.9v-2.3c0-7.2,1.8-12.3,5.3-15.3c3.5-3,8.6-4.5,15.2-4.5C365.1,121.4,367,121.6,369.4,122z"/>
		<path class="st1" d="M432.3,149.8c5.6,5,8.4,12.3,8.4,21.8c0,9.5-2.8,16.8-8.4,21.8c-5.6,5-13.3,7.5-23.2,7.5s-17.5-2.5-23.1-7.4
			c-5.6-5-8.4-12.2-8.4-21.9c0-9.6,2.8-16.9,8.4-21.9c5.6-4.9,13.3-7.4,23.1-7.4S426.7,144.8,432.3,149.8z M398.8,168.6v6
			c0,7.9,3.5,11.9,10.4,11.9c7,0,10.5-4,10.5-11.9v-6c0-8-3.5-12-10.5-12C402.2,156.6,398.8,160.6,398.8,168.6z"/>
		<path class="st1" d="M451.7,199.6v-76.9h21.1v76.9H451.7z"/>
		<path class="st1" d="M487,137v-14.3h21.1V137H487z M487,199.6v-56h21.1v56H487z"/>
		<path class="st1" d="M573.7,149.8c5.6,5,8.4,12.3,8.4,21.8c0,9.5-2.8,16.8-8.4,21.8c-5.6,5-13.3,7.5-23.2,7.5s-17.5-2.5-23.1-7.4
			c-5.6-5-8.4-12.2-8.4-21.9c0-9.6,2.8-16.9,8.4-21.9c5.6-4.9,13.3-7.4,23.1-7.4S568.1,144.8,573.7,149.8z M540.2,168.6v6
			c0,7.9,3.5,11.9,10.4,11.9c7,0,10.5-4,10.5-11.9v-6c0-8-3.5-12-10.5-12C543.6,156.6,540.2,160.6,540.2,168.6z"/>
	</g>
</g>
</svg>
