<?xml version="1.0" encoding="utf-8"?>
<!-- Generator: Adobe Illustrator 26.0.1, SVG Export Plug-In . SVG Version: 6.00 Build 0)  -->
<svg version="1.1" id="Layer_1" xmlns="http://www.w3.org/2000/svg" xmlns:xlink="http://www.w3.org/1999/xlink" x="0px" y="0px"
	 viewBox="0 0 256 256" style="enable-background:new 0 0 256 256;" xml:space="preserve">
<style type="text/css">
	.st0{fill:#9B1D20;}
</style>
<g>
	<polygon class="st0" points="143.1,198.3 113,198.3 120.3,130.3 127.9,59.2 128,58.8 128.1,59.2 135.8,130.3 	"/>
	<polygon class="st0" points="138.7,58.2 138.7,58.7 138.7,57.7 	"/>
	<polygon class="st0" points="138.9,57.7 138.9,58.7 138.7,58.2 	"/>
	<path class="st0" d="M212.7,130.3l-29.8,4.4l0,0h-0.1c-0.1-0.1-1.3-1.7-3.2-4.4c-11.7-16-51-70.7-51.6-71.6L212.7,130.3z"/>
</g>
<path class="st0" d="M128,58.7L128,58.7c-0.7,1-39.9,55.6-51.5,71.6c-1.9,2.7-3.1,4.3-3.2,4.4h-0.1l0,0l-29.8-4.4L128,58.7z"/>
</svg>
